<svg width="1133" height="938" viewBox="0 0 1133 938" fill="none" xmlns="http://www.w3.org/2000/svg">
<g opacity="0.3" filter="url(#filter0_f_170_1580)">
<path opacity="0.5" d="M332.569 292.678C325.659 316.507 298.809 327.979 294.649 353.588C294.059 360.478 286.529 373.428 261.139 370.111C236.669 384.336 160.909 356.697 142.409 380.471C128.789 397.973 113.799 419.802 119.089 451.272C123.169 475.536 136.749 499.454 150.509 520.105C170.449 550.018 193.979 577.223 219.399 598.762C302.239 668.978 397.089 687.256 479.169 687.506C579.179 687.816 665.819 649.193 738.749 587.425C768.829 561.952 795.769 532.466 816.479 494.932C835.539 460.375 851.049 421.738 863.019 380.834C878.27 328.763 886.86 270.381 880.47 207.216C875.62 159.174 855.009 113.361 826.469 71.538C787.469 14.361 735.039 -18.104 684.269 -21.763C652.949 -24.019 618.179 -10.452 616.729 31.898C615.629 64.205 630.549 100.514 640.229 133.683C646.689 155.849 655.499 187.242 640.729 198.803C615.749 218.36 580.959 223.977 549.459 227.938C509.219 232.998 466.139 222.109 424.259 219.446C400.139 217.912 380.599 229.741 363.439 244.208C349.649 255.841 338.499 272.249 332.569 292.678Z" fill="#499EE1"/>
</g>
<g opacity="0.3" filter="url(#filter1_f_170_1580)">
<path opacity="0.5" d="M668.033 292.678C674.943 316.507 701.793 327.979 705.953 353.588C706.543 360.478 714.073 373.428 739.463 370.111C763.933 384.336 839.693 356.697 858.193 380.471C871.81 397.973 886.8 419.802 881.51 451.272C877.43 475.536 863.853 499.454 850.093 520.105C830.153 550.018 806.623 577.223 781.203 598.762C698.363 668.978 603.513 687.256 521.433 687.506C421.423 687.816 334.783 649.193 261.853 587.425C231.773 561.952 204.833 532.466 184.123 494.932C165.063 460.375 149.553 421.738 137.583 380.834C122.333 328.763 113.743 270.381 120.133 207.216C124.983 159.174 145.593 113.361 174.133 71.538C213.133 14.361 265.563 -18.104 316.333 -21.763C347.653 -24.019 382.423 -10.452 383.873 31.898C384.973 64.205 370.053 100.514 360.373 133.683C353.913 155.849 345.103 187.242 359.873 198.803C384.853 218.36 419.643 223.977 451.143 227.938C491.383 232.998 534.463 222.109 576.343 219.446C600.463 217.912 620.003 229.741 637.163 244.208C650.953 255.841 662.103 272.249 668.033 292.678Z" fill="#C7C6CD"/>
</g>
<defs>
<filter id="filter0_f_170_1580" x="-132" y="-272" width="1264.6" height="1209.51" filterUnits="userSpaceOnUse" color-interpolation-filters="sRGB">
<feFlood flood-opacity="0" result="BackgroundImageFix"/>
<feBlend mode="normal" in="SourceGraphic" in2="BackgroundImageFix" result="shape"/>
<feGaussianBlur stdDeviation="125" result="effect1_foregroundBlur_170_1580"/>
</filter>
<filter id="filter1_f_170_1580" x="-132" y="-272" width="1264.6" height="1209.51" filterUnits="userSpaceOnUse" color-interpolation-filters="sRGB">
<feFlood flood-opacity="0" result="BackgroundImageFix"/>
<feBlend mode="normal" in="SourceGraphic" in2="BackgroundImageFix" result="shape"/>
<feGaussianBlur stdDeviation="125" result="effect1_foregroundBlur_170_1580"/>
</filter>
</defs>
</svg>
